<?xml version="1.0" encoding="UTF-8"?>
<svg xmlns="http://www.w3.org/2000/svg" viewBox="0 0 74 74" width="512" height="512"><g id="line_icons" data-name="line icons"><path d="M71,48.153H54.786a1,1,0,0,1,0-2H70V28.25H55.2a1,1,0,0,1,0-2H71a1,1,0,0,1,1,1v19.9A1,1,0,0,1,71,48.153Z"/><path d="M65.316,61.709H8.684A6.691,6.691,0,0,1,2,55.026v-34.8a6.691,6.691,0,0,1,6.684-6.683H22.56l2.054-6.329A4.253,4.253,0,0,1,28.65,4.291H45.365a4.212,4.212,0,0,1,4.022,2.927l2.053,6.327H65.316A6.691,6.691,0,0,1,72,20.228v34.8A6.691,6.691,0,0,1,65.316,61.709ZM8.684,15.545A4.689,4.689,0,0,0,4,20.228v34.8a4.689,4.689,0,0,0,4.684,4.683H65.316A4.689,4.689,0,0,0,70,55.026v-34.8a4.689,4.689,0,0,0-4.684-4.683h-14.6a1,1,0,0,1-.951-.691l-2.28-7.021a2.245,2.245,0,0,0-2.118-1.542H28.65a2.252,2.252,0,0,0-2.135,1.55l-2.278,7.013a1,1,0,0,1-.951.691Z"/><path d="M43,10.6H31.016a1,1,0,0,1,0-2H43a1,1,0,0,1,0,2Z"/><path d="M19,48.153H3a1,1,0,0,1-1-1V27.25a1,1,0,0,1,1-1H18.534a1,1,0,0,1,0,2H4v17.9H19a1,1,0,0,1,0,2Z"/><path d="M37,58.407A21.547,21.547,0,1,1,58.547,36.86,21.571,21.571,0,0,1,37,58.407Zm0-41.094A19.547,19.547,0,1,0,56.547,36.86,19.569,19.569,0,0,0,37,17.313Z"/><path d="M37,53.532A16.672,16.672,0,1,1,53.672,36.86,16.691,16.691,0,0,1,37,53.532Zm0-31.344A14.672,14.672,0,1,0,51.672,36.86,14.689,14.689,0,0,0,37,22.188Z"/><path d="M26.9,37.86a1,1,0,0,1-1-1A11.111,11.111,0,0,1,37,25.762a1,1,0,0,1,0,2,9.108,9.108,0,0,0-9.1,9.1A1,1,0,0,1,26.9,37.86Z"/><path d="M64.983,23.011H56.31a1,1,0,0,1-1-1V18.339a1,1,0,0,1,1-1h8.673a1,1,0,0,1,1,1v3.672A1,1,0,0,1,64.983,23.011Zm-7.673-2h6.673V19.339H57.31Z"/><path d="M17.078,15.545H9.513a1,1,0,0,1-1-1V11.613A3.014,3.014,0,0,1,11.524,8.6h3.542a3.014,3.014,0,0,1,3.012,3.011v2.932A1,1,0,0,1,17.078,15.545Zm-6.565-2h5.565V11.613A1.013,1.013,0,0,0,15.066,10.6H11.524a1.013,1.013,0,0,0-1.011,1.011Z"/></g></svg>
